<?xml version="1.0" standalone="no"?>
<!DOCTYPE svg PUBLIC "-//W3C//DTD SVG 1.1//EN" 
  "http://www.w3.org/Graphics/SVG/1.1/DTD/svg11.dtd">
<svg width="103.000mm" height="53.000mm" version="1.1"
     viewBox="0 0 103.000 53.000"
     xmlns="http://www.w3.org/2000/svg">
  <desc>Created with the Front Panel Designer by the export of the file 'Front.fpd'.</desc>
<g transform="scale(1,-1) translate(0, -53.000)" 
   fill-rule="evenodd"
   style="stroke-linecap:round; stroke-linejoin:round; stroke-opacity:1.0; stroke-opacity:1.0;">
<path d="M99.000 53.000 
L4.000 53.000
A4.000,4.000 0 0,1 0.000,49.000
L0.000 4.000
A4.000,4.000 0 0,1 4.000,0.000
L99.000 0.000
A4.000,4.000 0 0,1 103.000,4.000
L103.000 49.000
A4.000,4.000 0 0,1 99.000,53.000z"
fill="#000000" stroke="#000000" stroke-width="0.100" />
<path d="M22.810 7.960 
A0.855,0.855 0 0,1 22.810,9.670
L21.556 9.670
L21.556 6.250
L23.000 6.250
A0.855,0.855 0 0,1 23.000,7.960
L21.556 7.960
M24.748 9.670 L24.748 9.480
M24.748 8.530 L24.748 6.250
M25.660 7.200 
L25.660 7.580
A0.950,0.950 0 0,0 27.560,7.580
L27.560 7.200
A0.950,0.950 0 0,0 25.660,7.200
M28.472 6.250 
L28.472 8.530
L28.472 7.770
A0.760,0.760 0 0,0 29.992,7.770
L29.992 6.250
L29.992 7.770
A0.760,0.760 0 0,0 31.512,7.770
L31.512 6.250
M32.424 7.390 
L34.324 7.390
L34.324 7.580
A0.950,0.950 0 0,1 32.424,7.580
L32.424 7.200
A0.996,0.996 0 0,1 34.210,6.592
M37.136 9.670 
L37.136 7.200
A0.951,0.951 0 0,0 35.236,7.124
L35.236 7.580
A0.950,0.950 0 0,0 37.136,7.580
L37.136 6.250
M38.048 9.670 L38.048 9.480
M38.048 8.530 L38.048 6.250
M40.594 8.226 
A0.942,0.942 0 0,1 38.960,7.580
L38.960 7.200
A0.944,0.944 0 0,1 40.708,6.706
M43.596 8.530 
L43.596 7.200
A0.988,0.988 0 0,0 41.620,7.200
L41.620 7.580
A0.988,0.988 0 0,0 43.596,7.580
L43.596 6.668
A0.553,0.553 0 0,1 44.052,6.174
M44.964 9.670 
L44.964 6.706
A0.463,0.463 0 0,1 45.344,6.250
M48.688 9.670 L48.688 6.250
M49.600 6.250 
L49.600 8.530
L49.600 7.770
A0.760,0.760 0 0,0 51.120,7.770
L51.120 6.250
L51.120 7.770
A0.760,0.760 0 0,0 52.640,7.770
L52.640 6.250
M55.528 8.530 
L55.528 7.200
A0.988,0.988 0 0,0 53.552,7.200
L53.552 7.580
A0.988,0.988 0 0,0 55.528,7.580
L55.528 6.668
A0.553,0.553 0 0,1 55.984,6.174
M58.796 8.530 
L58.796 7.200
A0.951,0.951 0 0,0 56.896,7.124
L56.896 7.580
A0.950,0.950 0 0,0 58.796,7.580
L58.796 6.060
A0.958,0.958 0 0,0 57.162,5.376
M59.708 9.670 L59.708 9.480
M59.708 8.530 L59.708 6.250
M60.620 6.250 
L60.620 8.530
L60.620 7.580
A0.950,0.950 0 0,0 62.520,7.580
L62.520 6.250
M65.332 8.530 
L65.332 7.200
A0.951,0.951 0 0,0 63.432,7.124
L63.432 7.580
A0.950,0.950 0 0,0 65.332,7.580
L65.332 6.060
A0.958,0.958 0 0,0 63.698,5.376
M70.272 7.960 
L71.108 7.960
L71.108 7.390
A1.216,1.216 0 0,0 68.676,7.390
L68.676 8.530
A1.171,1.171 0 0,0 70.842,9.176
M72.020 6.250 
L72.020 8.530
L72.020 7.770
A0.840,0.840 0 0,0 72.210,8.302
A0.541,0.541 0 0,0 73.046,8.302
M73.920 7.200 
L73.920 7.580
A0.950,0.950 0 0,0 75.820,7.580
L75.820 7.200
A0.950,0.950 0 0,0 73.920,7.200
M76.732 8.530 
L76.732 7.200
A0.950,0.950 0 0,1 78.632,7.200
L78.632 6.250
L78.632 8.530
M79.544 5.110 
L79.544 7.580
A0.950,0.950 0 0,0 81.444,7.580
L81.444 7.200
A0.950,0.950 0 0,0 79.544,7.200
L79.544 8.530"
fill="none" stroke="#ffffff" stroke-width="0.200" />
<path d="M48.874 32.670 L48.874 29.250
M49.786 29.250 
L49.786 32.670
L52.066 29.250
L52.066 32.670"
fill="none" stroke="#ffffff" stroke-width="0.200" />
<path d="M19.442 30.390 
A1.216,1.216 0 0,1 21.874,30.390
L21.874 31.530
A1.216,1.216 0 0,1 19.442,31.530
L19.442 30.390
M22.786 32.670 
L22.786 30.314
A1.140,1.140 0 0,1 25.066,30.314
L25.066 32.670
M25.978 32.670 
L28.258 32.670
L27.118 32.670
L27.118 29.250"
fill="none" stroke="#ffffff" stroke-width="0.200" />
<path d="M75.268 32.670 
L75.268 30.314
A1.140,1.140 0 0,1 77.548,30.314
L77.548 32.670
M80.664 32.328 
A0.902,0.902 0 0,1 80.132,32.670
A2.146,2.146 0 0,1 79.068,32.632
A1.015,1.015 0 0,1 78.536,32.252
A0.695,0.695 0 0,1 78.878,31.188
L80.208 30.732
A0.694,0.694 0 0,0 80.550,29.668
A1.015,1.015 0 0,0 80.018,29.288
A2.146,2.146 0 0,0 78.954,29.250
A0.902,0.902 0 0,0 78.422,29.592
M82.830 30.960 
A0.855,0.855 0 0,1 82.830,32.670
L81.576 32.670
L81.576 29.250
L83.020 29.250
A0.855,0.855 0 0,1 83.020,30.960
L81.576 30.960"
fill="none" stroke="#ffffff" stroke-width="0.200" />
<path d="M61.346 17.330 
A0.352,0.352 0 0,1 62.050,17.330
L62.050 17.660
A0.352,0.352 0 0,1 61.346,17.660
L61.346 17.330
M62.314 17.000 
L62.314 17.990
L62.974 17.000
L62.974 17.990"
fill="none" stroke="#ffffff" stroke-width="0.200" />
<path d="M65.211 17.000 
L65.211 17.990
L65.574 17.990
A0.248,0.248 0 0,0 65.574,17.495
L65.211 17.495
L65.596 17.495
L65.816 17.000
M66.069 17.990 L66.729 17.000
M66.069 17.000 L66.729 17.990"
fill="none" stroke="#ffffff" stroke-width="0.200" />
<path d="M68.988 17.990 
L69.648 17.990
L69.318 17.990
L69.318 17.000
M69.912 17.990 L70.572 17.000
M69.912 17.000 L70.572 17.990"
fill="none" stroke="#ffffff" stroke-width="0.200" />
<path d="M27.300 35.500 
L27.300 42.000
A2.500,2.500 0 0,0 32.300,42.000
L32.300 41.000
A2.500,2.500 0 0,0 27.300,41.000
L27.300 44.500
M39.700 44.500 
L39.700 41.000
A2.502,2.502 0 0,0 34.700,40.800
L34.700 42.000
A2.500,2.500 0 0,0 39.700,42.000
L39.700 38.000
A2.521,2.521 0 0,0 35.400,36.200
M42.100 43.000 L47.100 43.000
M48.100 47.500 
L42.100 47.500
L42.100 38.500
M61.200 43.700 
A2.479,2.479 0 0,1 56.900,42.000
L56.900 41.000
A2.484,2.484 0 0,1 61.500,39.700
M63.900 44.500 
L63.900 41.000
A2.500,2.500 0 0,1 68.900,41.000
L68.900 38.500
L68.900 44.500
M71.300 39.300 
A3.398,3.398 0 0,1 74.900,38.700
A1.283,1.283 0 0,1 74.800,41.100
L72.100 42.000
A1.152,1.152 0 0,0 71.900,44.100
A3.542,3.542 0 0,0 75.700,43.900"
fill="none" stroke="#ffffff" stroke-width="0.200" />
<circle cx="4.000" cy="4.000" r="1.500"
fill="#ffffff" stroke="#000000" stroke-width="0.100" 
/>
<circle cx="4.000" cy="49.000" r="1.500"
fill="#ffffff" stroke="#000000" stroke-width="0.100" 
/>
<path d="M85.113 25.015 
A0.500,0.500 0 0,0 85.820,24.308
L85.820 14.622
A0.500,0.500 0 0,0 85.113,13.915
L74.027 13.915
A0.500,0.500 0 0,0 73.320,14.622
L73.320 24.308
A0.500,0.500 0 0,0 74.027,25.015
L85.113 25.015z"
fill="#ffffff" stroke="#000000" stroke-width="0.100" />
<circle cx="99.000" cy="49.000" r="1.500"
fill="#ffffff" stroke="#000000" stroke-width="0.100" 
/>
<circle cx="99.000" cy="4.000" r="1.500"
fill="#ffffff" stroke="#000000" stroke-width="0.100" 
/>
<path d="M19.950 25.880 
A1.500,1.500 0 0,0 20.850,26.180
L26.850 26.180
A1.500,1.500 0 0,0 27.750,25.880
A6.500,6.500 0 1,0 19.950,25.880z"
fill="#ffffff" stroke="#000000" stroke-width="0.100" />
<path d="M46.570 25.880 
A1.500,1.500 0 0,0 47.470,26.180
L53.470 26.180
A1.500,1.500 0 0,0 54.370,25.880
A6.500,6.500 0 1,0 46.570,25.880z"
fill="#ffffff" stroke="#000000" stroke-width="0.100" />
<circle cx="62.090" cy="15.000" r="1.400"
fill="#ffffff" stroke="#000000" stroke-width="0.100" 
/>
<circle cx="65.900" cy="15.000" r="1.400"
fill="#ffffff" stroke="#000000" stroke-width="0.100" 
/>
<circle cx="69.710" cy="15.000" r="1.400"
fill="#ffffff" stroke="#000000" stroke-width="0.100" 
/>
<circle cx="52.000" cy="41.500" r="3.175"
fill="#ffffff" stroke="#000000" stroke-width="0.100" 
/>
<path d="M-1.000 0.000 L1.000 0.000
M0.000 -1.000 L0.000 1.000"
fill="none" stroke="#ff0000" stroke-width="0.100" />
<path d="M3.000 4.000 L5.000 4.000
M4.000 3.000 L4.000 5.000"
fill="none" stroke="#ff0000" stroke-width="0.100" />
<path d="M3.000 49.000 L5.000 49.000
M4.000 48.000 L4.000 50.000"
fill="none" stroke="#ff0000" stroke-width="0.100" />
<path d="M78.570 19.465 L80.570 19.465
M79.570 18.465 L79.570 20.465"
fill="none" stroke="#ff0000" stroke-width="0.100" />
<path d="M50.500 8.000 L52.500 8.000
M51.500 7.000 L51.500 9.000"
fill="none" stroke="#ff0000" stroke-width="0.100" />
<path d="M49.470 31.000 L51.470 31.000
M50.470 30.000 L50.470 32.000"
fill="none" stroke="#ff0000" stroke-width="0.100" />
<path d="M22.850 31.000 L24.850 31.000
M23.850 30.000 L23.850 32.000"
fill="none" stroke="#ff0000" stroke-width="0.100" />
<path d="M78.570 31.000 L80.570 31.000
M79.570 30.000 L79.570 32.000"
fill="none" stroke="#ff0000" stroke-width="0.100" />
<path d="M98.000 49.000 L100.000 49.000
M99.000 48.000 L99.000 50.000"
fill="none" stroke="#ff0000" stroke-width="0.100" />
<path d="M98.000 4.000 L100.000 4.000
M99.000 3.000 L99.000 5.000"
fill="none" stroke="#ff0000" stroke-width="0.100" />
<path d="M22.850 20.680 L24.850 20.680
M23.850 19.680 L23.850 21.680"
fill="none" stroke="#ff0000" stroke-width="0.100" />
<path d="M49.470 20.680 L51.470 20.680
M50.470 19.680 L50.470 21.680"
fill="none" stroke="#ff0000" stroke-width="0.100" />
<path d="M61.090 15.000 L63.090 15.000
M62.090 14.000 L62.090 16.000"
fill="none" stroke="#ff0000" stroke-width="0.100" />
<path d="M64.900 15.000 L66.900 15.000
M65.900 14.000 L65.900 16.000"
fill="none" stroke="#ff0000" stroke-width="0.100" />
<path d="M68.710 15.000 L70.710 15.000
M69.710 14.000 L69.710 16.000"
fill="none" stroke="#ff0000" stroke-width="0.100" />
<path d="M61.160 17.500 L63.160 17.500
M62.160 16.500 L62.160 18.500"
fill="none" stroke="#ff0000" stroke-width="0.100" />
<path d="M64.970 17.500 L66.970 17.500
M65.970 16.500 L65.970 18.500"
fill="none" stroke="#ff0000" stroke-width="0.100" />
<path d="M68.780 17.500 L70.780 17.500
M69.780 16.500 L69.780 18.500"
fill="none" stroke="#ff0000" stroke-width="0.100" />
<path d="M50.500 43.000 L52.500 43.000
M51.500 42.000 L51.500 44.000"
fill="none" stroke="#ff0000" stroke-width="0.100" />
<path d="M51.000 41.500 L53.000 41.500
M52.000 40.500 L52.000 42.500"
fill="none" stroke="#ff0000" stroke-width="0.100" />
</g>
</svg>
