<?xml version="1.0" standalone="no"?>
<!DOCTYPE svg PUBLIC "-//W3C//DTD SVG 1.1//EN" 
  "http://www.w3.org/Graphics/SVG/1.1/DTD/svg11.dtd">
<svg width="103.000mm" height="53.000mm" version="1.1"
     viewBox="0 0 103.000 53.000"
     xmlns="http://www.w3.org/2000/svg">
  <desc>Created with the Front Panel Designer by the export of the file 'Back.fpd'.</desc>
<g transform="scale(1,-1) translate(0, -53.000)" 
   fill-rule="evenodd"
   style="stroke-linecap:round; stroke-linejoin:round; stroke-opacity:1.0; stroke-opacity:1.0;">
<path d="M99.000 53.000 
L4.000 53.000
A4.000,4.000 0 0,1 0.000,49.000
L0.000 4.000
A4.000,4.000 0 0,1 4.000,0.000
L99.000 0.000
A4.000,4.000 0 0,1 103.000,4.000
L103.000 49.000
A4.000,4.000 0 0,1 99.000,53.000z"
fill="#000000" stroke="#000000" stroke-width="0.100" />
<path d="M25.432 49.170 
L25.432 46.814
A1.140,1.140 0 0,1 27.712,46.814
L27.712 49.170
M28.624 45.750 
L28.624 49.170
L29.954 46.700
L31.284 49.170
L31.284 45.750
M34.172 48.030 
L34.172 46.700
A0.988,0.988 0 0,0 32.196,46.700
L32.196 47.080
A0.988,0.988 0 0,0 34.172,47.080
L34.172 46.168
A0.553,0.553 0 0,1 34.628,45.674
M35.540 46.054 
A1.291,1.291 0 0,1 36.908,45.826
A0.487,0.487 0 0,1 36.870,46.738
L35.844 47.080
A0.438,0.438 0 0,0 35.768,47.878
A1.346,1.346 0 0,0 37.212,47.802
M38.124 46.054 
A1.291,1.291 0 0,1 39.492,45.826
A0.487,0.487 0 0,1 39.454,46.738
L38.428 47.080
A0.438,0.438 0 0,0 38.352,47.878
A1.346,1.346 0 0,0 39.796,47.802
M43.140 45.750 
L43.140 49.170
L44.470 46.700
L45.800 49.170
L45.800 45.750
M46.712 46.890 
L48.612 46.890
L48.612 47.080
A0.950,0.950 0 0,1 46.712,47.080
L46.712 46.700
A0.996,0.996 0 0,1 48.498,46.092
M51.424 49.170 
L51.424 46.700
A0.951,0.951 0 0,0 49.524,46.624
L49.524 47.080
A0.950,0.950 0 0,0 51.424,47.080
L51.424 45.750
M52.336 49.170 L52.336 48.980
M52.336 48.030 L52.336 45.750
M54.882 47.726 
A0.942,0.942 0 0,1 53.248,47.080
L53.248 46.700
A0.944,0.944 0 0,1 54.996,46.206
M57.884 48.030 
L57.884 46.700
A0.988,0.988 0 0,0 55.908,46.700
L55.908 47.080
A0.988,0.988 0 0,0 57.884,47.080
L57.884 46.168
A0.553,0.553 0 0,1 58.340,45.674
M59.252 49.170 
L59.252 46.206
A0.463,0.463 0 0,1 59.632,45.750
M65.180 48.828 
A0.902,0.902 0 0,1 64.648,49.170
A2.146,2.146 0 0,1 63.584,49.132
A1.015,1.015 0 0,1 63.052,48.752
A0.695,0.695 0 0,1 63.394,47.688
L64.724 47.232
A0.694,0.694 0 0,0 65.066,46.168
A1.015,1.015 0 0,0 64.534,45.788
A2.146,2.146 0 0,0 63.470,45.750
A0.902,0.902 0 0,0 62.938,46.092
M67.726 47.726 
A0.942,0.942 0 0,1 66.092,47.080
L66.092 46.700
A0.944,0.944 0 0,1 67.840,46.206
M68.752 49.170 
L68.752 45.750
L68.752 47.080
A0.950,0.950 0 0,0 70.652,47.080
L70.652 45.750
M71.564 46.700 
L71.564 47.080
A0.950,0.950 0 0,0 73.464,47.080
L73.464 46.700
A0.950,0.950 0 0,0 71.564,46.700
M74.376 46.700 
L74.376 47.080
A0.950,0.950 0 0,0 76.276,47.080
L76.276 46.700
A0.950,0.950 0 0,0 74.376,46.700
M77.188 49.170 
L77.188 46.206
A0.463,0.463 0 0,1 77.568,45.750"
fill="none" stroke="#e0e0e0" stroke-width="0.200" />
<circle cx="4.000" cy="4.000" r="1.500"
fill="#ffffff" stroke="#000000" stroke-width="0.100" 
/>
<circle cx="4.000" cy="49.000" r="1.500"
fill="#ffffff" stroke="#000000" stroke-width="0.100" 
/>
<circle cx="99.000" cy="4.000" r="1.500"
fill="#ffffff" stroke="#000000" stroke-width="0.100" 
/>
<circle cx="99.000" cy="49.000" r="1.500"
fill="#ffffff" stroke="#000000" stroke-width="0.100" 
/>
<circle cx="51.500" cy="26.500" r="7.493"
fill="#ffffff" stroke="#000000" stroke-width="0.100" 
/>
<circle cx="38.800" cy="39.200" r="3.496"
fill="#e0e0e0" stroke="#000000" stroke-width="0.100" 
/>
<circle cx="38.800" cy="39.200" r="2.192"
fill="#ffffff" stroke="#000000" stroke-width="0.100" 
/>
<circle cx="38.800" cy="13.800" r="3.496"
fill="#e0e0e0" stroke="#000000" stroke-width="0.100" 
/>
<circle cx="38.800" cy="13.800" r="2.192"
fill="#ffffff" stroke="#000000" stroke-width="0.100" 
/>
<circle cx="64.200" cy="39.200" r="3.496"
fill="#e0e0e0" stroke="#000000" stroke-width="0.100" 
/>
<circle cx="64.200" cy="39.200" r="2.192"
fill="#ffffff" stroke="#000000" stroke-width="0.100" 
/>
<circle cx="64.200" cy="13.800" r="3.496"
fill="#e0e0e0" stroke="#000000" stroke-width="0.100" 
/>
<circle cx="64.200" cy="13.800" r="2.192"
fill="#ffffff" stroke="#000000" stroke-width="0.100" 
/>
<path d="M17.250 18.999 
A2.500,2.500 0 0,1 20.184,16.537
L26.684 17.684
A2.500,2.500 0 0,1 28.750,20.146
L28.750 32.854
A2.500,2.500 0 0,1 26.684,35.316
L20.184 36.463
A2.500,2.500 0 0,1 17.250,34.001
L17.250 18.999z"
fill="#ffffff" stroke="#000000" stroke-width="0.100" />
<circle cx="23.000" cy="39.000" r="1.600"
fill="#ffffff" stroke="#000000" stroke-width="0.100" 
/>
<circle cx="23.000" cy="14.000" r="1.600"
fill="#ffffff" stroke="#000000" stroke-width="0.100" 
/>
<path d="M-1.000 0.000 L1.000 0.000
M0.000 -1.000 L0.000 1.000"
fill="none" stroke="#ff0000" stroke-width="0.100" />
<path d="M3.000 4.000 L5.000 4.000
M4.000 3.000 L4.000 5.000"
fill="none" stroke="#ff0000" stroke-width="0.100" />
<path d="M3.000 49.000 L5.000 49.000
M4.000 48.000 L4.000 50.000"
fill="none" stroke="#ff0000" stroke-width="0.100" />
<path d="M98.000 4.000 L100.000 4.000
M99.000 3.000 L99.000 5.000"
fill="none" stroke="#ff0000" stroke-width="0.100" />
<path d="M98.000 49.000 L100.000 49.000
M99.000 48.000 L99.000 50.000"
fill="none" stroke="#ff0000" stroke-width="0.100" />
<path d="M50.500 26.500 L52.500 26.500
M51.500 25.500 L51.500 27.500"
fill="none" stroke="#ff0000" stroke-width="0.100" />
<path d="M37.800 39.200 L39.800 39.200
M38.800 38.200 L38.800 40.200"
fill="none" stroke="#ff0000" stroke-width="0.100" />
<path d="M37.800 13.800 L39.800 13.800
M38.800 12.800 L38.800 14.800"
fill="none" stroke="#ff0000" stroke-width="0.100" />
<path d="M63.200 39.200 L65.200 39.200
M64.200 38.200 L64.200 40.200"
fill="none" stroke="#ff0000" stroke-width="0.100" />
<path d="M63.200 13.800 L65.200 13.800
M64.200 12.800 L64.200 14.800"
fill="none" stroke="#ff0000" stroke-width="0.100" />
<path d="M50.500 47.500 L52.500 47.500
M51.500 46.500 L51.500 48.500"
fill="none" stroke="#ff0000" stroke-width="0.100" />
<path d="M22.000 26.500 L24.000 26.500
M23.000 25.500 L23.000 27.500"
fill="none" stroke="#00ff00" stroke-width="0.100" />
<path d="M22.000 39.000 L24.000 39.000
M23.000 38.000 L23.000 40.000"
fill="none" stroke="#00ff00" stroke-width="0.100" />
<path d="M22.000 14.000 L24.000 14.000
M23.000 13.000 L23.000 15.000"
fill="none" stroke="#00ff00" stroke-width="0.100" />
<path d="M22.000 26.500 L24.000 26.500
M23.000 25.500 L23.000 27.500"
fill="none" stroke="#ff0000" stroke-width="0.100" />
</g>
</svg>
